<?xml version="1.0" encoding="UTF-8" standalone="no"?>
<!DOCTYPE svg PUBLIC "-//W3C//DTD SVG 1.1//EN" "http://www.w3.org/Graphics/SVG/1.1/DTD/svg11.dtd">
<svg version="1.1" xmlns="http://www.w3.org/2000/svg" xmlns:xlink="http://www.w3.org/1999/xlink" preserveAspectRatio="xMidYMid meet" viewBox="229.4268590123535 108.42938759529565 134.69225283311837 192.57829399017012" width="130.69" height="188.58"><defs><path d="M268.82 132.91C262.8 132.93 257.9 128.05 257.89 122.02C257.88 119.53 257.89 122.09 257.88 119.38C257.87 113.96 262.25 109.56 267.67 109.55C281.39 109.52 313.67 109.46 327.63 109.43C332.4 109.42 336.27 113.28 336.28 118.05C336.29 120.99 336.29 119.44 336.29 121.95C336.31 127.93 331.47 132.79 325.48 132.8C311.97 132.83 282.32 132.89 268.82 132.91Z" id="l6RGcncYJ4"></path><radialGradient id="gradienta4nvCwaj4r" gradientUnits="userSpaceOnUse" cx="297.09" cy="123.37" dx="297.02" dy="91.23" r="32.13"><stop style="stop-color: #fffafa;stop-opacity: 0.64" offset="0%"></stop><stop style="stop-color: #010000;stop-opacity: 1" offset="100%"></stop></radialGradient><path d="" id="anakjiu2g"></path><path d="" id="b36OwGAOzv"></path><path d="M254.3 176.07C254.76 176.24 255.04 176.34 255.16 176.38C263.74 179.52 272.7 181.5 281.81 182.28C284.12 182.47 280.34 182.15 283.41 182.41C290.02 182.97 296.67 182.97 303.29 182.42C306.64 182.14 302.69 182.47 305.02 182.27C315.01 181.43 324.93 179.86 334.69 177.58C336.14 177.24 327.19 179.33 328.98 178.92C337.53 176.92 345.65 173.42 352.98 168.59C354.55 167.55 354.79 167.39 358.01 165.27C359.22 164.47 360.84 165.34 360.85 166.79C360.91 192.99 361.06 262.92 361.12 287.8C361.13 293.3 356.68 297.78 351.17 297.79C327.08 297.84 264.78 297.96 240.69 298.01C235.19 298.02 230.72 293.56 230.7 288.06C230.65 263.18 230.49 193.75 230.43 167.67C230.43 165.85 232.36 164.67 233.98 165.51C236.69 166.92 243.46 170.44 254.3 176.07Z" id="d335K9xGKC"></path><radialGradient id="gradientbo5lBgmwe" gradientUnits="userSpaceOnUse" cx="295.72" cy="202.33" dx="295.27" dy="335.17" r="132.84"><stop style="stop-color: #9adae7;stop-opacity: 1" offset="0%"></stop><stop style="stop-color: #839193;stop-opacity: 1" offset="48.291994215097944%"></stop><stop style="stop-color: #010000;stop-opacity: 1" offset="100%"></stop></radialGradient><path d="M230.61 246.91C238.22 247.49 242.97 247.85 244.87 248C250.43 248.42 254.67 246.44 258.75 246.85C264.05 247.39 269.07 250.23 276.29 249.74C278.81 249.57 288.32 247.79 290.84 247.55C296.23 247.03 296.39 247.02 291.32 247.5C296.36 247.02 301.45 247.3 306.41 248.32C307.27 248.5 309.44 248.95 312.9 249.67C312.9 249.67 312.9 249.67 312.9 249.67C312.9 249.67 332.43 248.66 343.17 248.11C347.25 247.9 351.72 249.59 351.72 249.59C353.18 249.44 356.28 248.46 361.03 246.65C361.08 268.54 361.11 282.22 361.12 287.69C361.13 293.26 356.63 297.78 351.06 297.79C327 297.84 264.87 297.96 240.8 298.01C235.24 298.02 230.72 293.52 230.7 287.95C230.69 282.48 230.66 268.8 230.61 246.91Z" id="b7nCnliP1"></path><path d="M321.57 132.81L360.84 165.29C352.7 169.62 344.56 173.14 336.41 175.85C322.84 180.38 309.26 182.65 295.67 182.68C273.94 182.72 252.19 177.01 230.43 165.55L273.05 132.91C277.1 134.11 279.64 134.87 280.65 135.17C291.4 138.38 302.86 138.38 313.61 135.18C314.67 134.86 317.32 134.07 321.57 132.81Z" id="d15n2ztq4z"></path><radialGradient id="gradienth3evJUAZq" gradientUnits="userSpaceOnUse" cx="300.28" cy="160.6" dx="215.7" dy="177" r="86.15"><stop style="stop-color: #9adae7;stop-opacity: 1" offset="0%"></stop><stop style="stop-color: #292f30;stop-opacity: 1" offset="100%"></stop></radialGradient></defs><g><g><g><filter id="shadow1204886" x="248.88" y="100.43" width="97.41" height="42.49" filterUnits="userSpaceOnUse" primitiveUnits="userSpaceOnUse"><feFlood></feFlood><feComposite in2="SourceAlpha" operator="in"></feComposite><feGaussianBlur stdDeviation="1"></feGaussianBlur><feOffset dx="1" dy="1" result="afterOffset"></feOffset><feFlood flood-color="#877a7a" flood-opacity="0.5"></feFlood><feComposite in2="afterOffset" operator="in"></feComposite><feMorphology operator="dilate" radius="1"></feMorphology><feComposite in2="SourceAlpha" operator="out"></feComposite></filter><path d="M268.82 132.91C262.8 132.93 257.9 128.05 257.89 122.02C257.88 119.53 257.89 122.09 257.88 119.38C257.87 113.96 262.25 109.56 267.67 109.55C281.39 109.52 313.67 109.46 327.63 109.43C332.4 109.42 336.27 113.28 336.28 118.05C336.29 120.99 336.29 119.44 336.29 121.95C336.31 127.93 331.47 132.79 325.48 132.8C311.97 132.83 282.32 132.89 268.82 132.91Z" id="c9BRvynA2" fill="white" fill-opacity="1" filter="url(#shadow1204886)"></path></g><use xlink:href="#l6RGcncYJ4" opacity="0.71" fill="url(#gradienta4nvCwaj4r)"></use></g><g><g><use xlink:href="#anakjiu2g" opacity="1" fill-opacity="0" stroke="#ae3178" stroke-width="1" stroke-opacity="1"></use></g></g><g><g><use xlink:href="#b36OwGAOzv" opacity="1" fill-opacity="0" stroke="#ae3178" stroke-width="1" stroke-opacity="1"></use></g></g><g><use xlink:href="#d335K9xGKC" opacity="0.54" fill="url(#gradientbo5lBgmwe)"></use><g><use xlink:href="#d335K9xGKC" opacity="0.54" fill-opacity="0" stroke="#0b0106" stroke-width="2" stroke-opacity="1"></use></g></g><g><use xlink:href="#b7nCnliP1" opacity="1" fill="#f0ca60" fill-opacity="1"></use></g><g><use xlink:href="#d15n2ztq4z" opacity="0.54" fill="url(#gradienth3evJUAZq)"></use><g><use xlink:href="#d15n2ztq4z" opacity="0.54" fill-opacity="0" stroke="#000000" stroke-width="2" stroke-opacity="1"></use></g></g></g></svg>