<?xml version="1.0" encoding="UTF-8" standalone="no"?>
<!DOCTYPE svg PUBLIC "-//W3C//DTD SVG 1.1//EN" "http://www.w3.org/Graphics/SVG/1.1/DTD/svg11.dtd">
<svg version="1.1" xmlns="http://www.w3.org/2000/svg" xmlns:xlink="http://www.w3.org/1999/xlink" preserveAspectRatio="xMidYMid meet" viewBox="264.6521739130434 217.18840579710144 43.1304347826088 172.75085554220504" width="39.13" height="161.75"><defs><path d="M276.88 262.39C285.08 262.39 290.2 262.39 292.25 262.39C292.97 262.39 293.55 262.97 293.55 263.69C293.55 284.74 293.55 342.16 293.55 362.11C293.55 366.56 292.31 370.92 289.97 374.7C289.07 376.15 288.65 376.84 287.42 378.82C286.52 380.29 284.4 380.32 283.46 378.88C282.14 376.89 281.85 376.45 280.95 375.07C278.3 371.05 276.88 366.35 276.88 361.54C276.88 348.32 276.88 315.27 276.88 262.39Z" id="c3w7NgzxXR"></path><clipPath id="clipc176DtE4x5"><use xlink:href="#c3w7NgzxXR" opacity="0.7"></use></clipPath><path d="M300.69 253.7C302.95 253.7 304.78 255.53 304.78 257.78C304.78 259 304.78 258.54 304.78 259.75C304.78 262.01 302.95 263.84 300.69 263.84C293.69 263.84 276.75 263.84 269.74 263.84C267.48 263.84 265.65 262.01 265.65 259.75C265.65 258.54 265.65 259 265.65 257.78C265.65 255.53 267.48 253.7 269.74 253.7C276.75 253.7 293.69 253.7 300.69 253.7Z" id="fWtjLwoM"></path><radialGradient id="gradienta4INpadLcn" gradientUnits="userSpaceOnUse" cx="285.22" cy="253.7" dx="285.22" dy="270.36" r="16.67"><stop style="stop-color: #ffffff;stop-opacity: 1" offset="0%"></stop><stop style="stop-color: #010000;stop-opacity: 1" offset="100%"></stop></radialGradient><path d="M285.22 218.19C292.22 218.19 297.9 223.87 297.9 230.87C297.9 233.91 297.9 241.52 297.9 253.7L272.54 253.7C272.54 241.52 272.54 233.91 272.54 230.87C272.54 223.87 278.21 218.19 285.22 218.19C287.75 218.19 282.68 218.19 285.22 218.19Z" id="a15TSn7JSB"></path><radialGradient id="gradientb47aVzlxyi" gradientUnits="userSpaceOnUse" cx="285.22" cy="218.19" dx="285.22" dy="253.7" r="35.51"><stop style="stop-color: #d76161;stop-opacity: 1" offset="0%"></stop><stop style="stop-color: #410808;stop-opacity: 1" offset="100%"></stop></radialGradient></defs><g><g><g><filter id="shadow16202431" x="251.38" y="236.89" width="68.17" height="168.55" filterUnits="userSpaceOnUse" primitiveUnits="userSpaceOnUse"><feFlood></feFlood><feComposite in2="SourceAlpha" operator="in"></feComposite><feGaussianBlur stdDeviation="3.16"></feGaussianBlur><feOffset dx="0.5" dy="0" result="afterOffset"></feOffset><feFlood flood-color="#000000" flood-opacity="0.5"></feFlood><feComposite in2="afterOffset" operator="in"></feComposite><feMorphology operator="dilate" radius="0"></feMorphology><feComposite in2="SourceAlpha" operator="out"></feComposite></filter><path d="M276.88 262.39C285.08 262.39 290.2 262.39 292.25 262.39C292.97 262.39 293.55 262.97 293.55 263.69C293.55 284.74 293.55 342.16 293.55 362.11C293.55 366.56 292.31 370.92 289.97 374.7C289.07 376.15 288.65 376.84 287.42 378.82C286.52 380.29 284.4 380.32 283.46 378.88C282.14 376.89 281.85 376.45 280.95 375.07C278.3 371.05 276.88 366.35 276.88 361.54C276.88 348.32 276.88 315.27 276.88 262.39Z" id="c2dZZF3Sft" fill="white" fill-opacity="1" filter="url(#shadow16202431)"></path></g><use xlink:href="#c3w7NgzxXR" opacity="0.7" fill="#e4dcde" fill-opacity="1"></use><g clip-path="url(#clipc176DtE4x5)"><use xlink:href="#c3w7NgzxXR" opacity="0.7" fill-opacity="0" stroke="#1d1d18" stroke-width="3" stroke-opacity="1"></use></g><g><filter id="shadow7666990" x="265.88" y="251.39" width="41.67" height="140.55" filterUnits="userSpaceOnUse" primitiveUnits="userSpaceOnUse"><feFlood></feFlood><feComposite in2="SourceAlpha" operator="out"></feComposite><feGaussianBlur stdDeviation="1"></feGaussianBlur><feOffset dx="3" dy="1" result="afterOffset"></feOffset><feFlood flood-color="#ffffff" flood-opacity="0.8"></feFlood><feComposite in2="afterOffset" operator="in"></feComposite><feMorphology operator="dilate" radius="1"></feMorphology><feComposite in2="SourceAlpha" operator="in"></feComposite></filter><path d="M276.88 262.39C285.08 262.39 290.2 262.39 292.25 262.39C292.97 262.39 293.55 262.97 293.55 263.69C293.55 284.74 293.55 342.16 293.55 362.11C293.55 366.56 292.31 370.92 289.97 374.7C289.07 376.15 288.65 376.84 287.42 378.82C286.52 380.29 284.4 380.32 283.46 378.88C282.14 376.89 281.85 376.45 280.95 375.07C278.3 371.05 276.88 366.35 276.88 361.54C276.88 348.32 276.88 315.27 276.88 262.39Z" id="a2rbNAmS3U" fill="white" fill-opacity="1" filter="url(#shadow7666990)"></path></g></g><g><use xlink:href="#fWtjLwoM" opacity="1" fill="url(#gradienta4INpadLcn)"></use></g><g><use xlink:href="#a15TSn7JSB" opacity="1" fill="url(#gradientb47aVzlxyi)"></use></g></g></svg>