<?xml version="1.0" encoding="UTF-8" standalone="no"?>
<!DOCTYPE svg PUBLIC "-//W3C//DTD SVG 1.1//EN" "http://www.w3.org/Graphics/SVG/1.1/DTD/svg11.dtd">
<svg version="1.1" xmlns="http://www.w3.org/2000/svg" xmlns:xlink="http://www.w3.org/1999/xlink" preserveAspectRatio="xMidYMid meet" viewBox="196.7020650571932 10.719051212803416 33.660174263850706 85.48472275169554" width="29.66" height="81.48"><defs><path d="M225.95 86.15C227.5 86.79 227.36 88.67 227.36 89.68C227.36 91.62 223.73 93.2 219.25 93.2C214.77 93.2 211.14 91.62 211.14 89.68C211.14 88.45 210.93 86.78 213.12 86.15C214.4 85.78 217.59 86.15 219.25 86.15C221.42 86.15 224.49 85.54 225.95 86.15Z" id="e1dyXE4fEo"></path><radialGradient id="gradienta1h6RRTy0" gradientUnits="userSpaceOnUse" cx="219.25" cy="85.88" dx="218.7" dy="93.81" r="7.96"><stop style="stop-color: #ffffff;stop-opacity: 1" offset="0%"></stop><stop style="stop-color: #010000;stop-opacity: 1" offset="100%"></stop></radialGradient><path d="M199.68 11.73C200.03 11.66 200.38 11.89 200.45 12.25C201.1 15.59 202.73 23.96 205.34 37.34C210.37 63.17 213.52 79.31 214.78 85.76C214.85 86.12 214.61 86.48 214.25 86.55C213.81 86.65 213.75 86.66 213.46 86.72C212.67 86.89 211.9 86.38 211.74 85.59C208.88 70.91 200.59 28.33 197.73 13.66C197.57 12.85 198.09 12.07 198.89 11.9C199.18 11.84 199.23 11.83 199.68 11.73Z" id="kmkOImIKt"></path><linearGradient id="gradientaG1cT01xg" gradientUnits="userSpaceOnUse" x1="196.35" y1="-2.49" x2="208.26" y2="58.66"><stop style="stop-color: #ffffff;stop-opacity: 1" offset="0%"></stop><stop style="stop-color: #010000;stop-opacity: 1" offset="100%"></stop></linearGradient></defs><g><g><use xlink:href="#e1dyXE4fEo" opacity="1" fill="url(#gradienta1h6RRTy0)"></use><g><use xlink:href="#e1dyXE4fEo" opacity="1" fill-opacity="0" stroke="#1d1d18" stroke-width="1" stroke-opacity="1"></use></g></g><g><use xlink:href="#kmkOImIKt" opacity="1" fill="url(#gradientaG1cT01xg)"></use></g></g></svg>