<?xml version="1.0" encoding="UTF-8" standalone="no"?>
<!DOCTYPE svg PUBLIC "-//W3C//DTD SVG 1.1//EN" "http://www.w3.org/Graphics/SVG/1.1/DTD/svg11.dtd">
<svg version="1.1" xmlns="http://www.w3.org/2000/svg" xmlns:xlink="http://www.w3.org/1999/xlink" preserveAspectRatio="xMidYMid meet" viewBox="318.99999999999983 425.30542563950127 117.25174866204816 85.99228428416285" width="113.25" height="75.49"><defs><path d="M433.25 463.55C433.25 484.38 407.88 501.3 376.63 501.3C345.37 501.3 320 484.38 320 463.55C320 442.72 345.37 425.81 376.63 425.81C407.88 425.81 433.25 442.72 433.25 463.55Z" id="eabsw6OGd"></path><radialGradient id="gradienta1hMCI7UKY" gradientUnits="userSpaceOnUse" cx="375.4" cy="463.55" dx="376.63" dy="501.3" r="37.77"><stop style="stop-color: #ffffff;stop-opacity: 1" offset="0%"></stop><stop style="stop-color: #fffb96;stop-opacity: 1" offset="100%"></stop></radialGradient></defs><g><g><g><filter id="shadow1546487" x="304" y="409.81" width="146.25" height="115.49" filterUnits="userSpaceOnUse" primitiveUnits="userSpaceOnUse"><feFlood></feFlood><feComposite in2="SourceAlpha" operator="in"></feComposite><feGaussianBlur stdDeviation="1"></feGaussianBlur><feOffset dx="1" dy="8" result="afterOffset"></feOffset><feFlood flood-color="#623104" flood-opacity="0.5"></feFlood><feComposite in2="afterOffset" operator="in"></feComposite><feMorphology operator="dilate" radius="1"></feMorphology><feComposite in2="SourceAlpha" operator="out"></feComposite></filter><path d="M433.25 463.55C433.25 484.38 407.88 501.3 376.63 501.3C345.37 501.3 320 484.38 320 463.55C320 442.72 345.37 425.81 376.63 425.81C407.88 425.81 433.25 442.72 433.25 463.55Z" id="b1MULJI70V" fill="white" fill-opacity="1" filter="url(#shadow1546487)"></path></g><use xlink:href="#eabsw6OGd" opacity="1" fill="url(#gradienta1hMCI7UKY)"></use><g><use xlink:href="#eabsw6OGd" opacity="1" fill-opacity="0" stroke="#9c9c9c" stroke-width="1" stroke-opacity="1"></use></g></g></g></svg>