<?xml version="1.0" encoding="UTF-8" standalone="no"?>
<!DOCTYPE svg PUBLIC "-//W3C//DTD SVG 1.1//EN" "http://www.w3.org/Graphics/SVG/1.1/DTD/svg11.dtd">
<svg version="1.1" xmlns="http://www.w3.org/2000/svg" xmlns:xlink="http://www.w3.org/1999/xlink" preserveAspectRatio="xMidYMid meet" viewBox="10.51016686249892 155.8 181.83575433213855 95.79999999999987" width="177.84" height="91.8"><defs><path d="M189.35 206.83C189.35 229.88 149.5 248.6 100.43 248.6C51.35 248.6 11.51 229.88 11.51 206.83C11.51 183.77 51.35 165.06 100.43 165.06C149.5 165.06 189.35 183.77 189.35 206.83Z" id="b14MRmDRQ9"></path><linearGradient id="gradientev9WR0DnE" gradientUnits="userSpaceOnUse" x1="22.71" y1="200.53" x2="262.66" y2="206.83"><stop style="stop-color: #ffffff;stop-opacity: 1" offset="0%"></stop><stop style="stop-color: #010000;stop-opacity: 1" offset="100%"></stop></linearGradient><path d="M189.35 184.73C189.35 200.14 149.5 212.66 100.43 212.66C51.35 212.66 11.51 200.14 11.51 184.73C11.51 169.31 51.35 156.8 100.43 156.8C149.5 156.8 189.35 169.31 189.35 184.73Z" id="d94ibgYoE"></path><path d="M179.82 188.86C179.82 201.99 143.93 212.66 99.72 212.66C55.51 212.66 19.62 201.99 19.62 188.86C19.62 175.72 55.51 165.06 99.72 165.06C143.93 165.06 179.82 175.72 179.82 188.86Z" id="e5ApsIB9"></path><radialGradient id="gradientc2cXkrdCq6" gradientUnits="userSpaceOnUse" cx="104" cy="191.29" dx="99.34" dy="380.71" r="189.49"><stop style="stop-color: #ffffff;stop-opacity: 1" offset="0%"></stop><stop style="stop-color: #010000;stop-opacity: 1" offset="100%"></stop></radialGradient></defs><g><g><use xlink:href="#b14MRmDRQ9" opacity="1" fill="url(#gradientev9WR0DnE)"></use><g><use xlink:href="#b14MRmDRQ9" opacity="1" fill-opacity="0" stroke="#000000" stroke-width="1" stroke-opacity="1"></use></g></g><g><use xlink:href="#d94ibgYoE" opacity="1" fill="#8d8d8d" fill-opacity="1"></use><g><use xlink:href="#d94ibgYoE" opacity="1" fill-opacity="0" stroke="#000000" stroke-width="1" stroke-opacity="1"></use></g></g><g><use xlink:href="#e5ApsIB9" opacity="1" fill="url(#gradientc2cXkrdCq6)"></use><g><use xlink:href="#e5ApsIB9" opacity="1" fill-opacity="0" stroke="#000000" stroke-width="0.5" stroke-opacity="1"></use></g></g></g></svg>