<?xml version="1.0" encoding="UTF-8" standalone="no"?>
<!DOCTYPE svg PUBLIC "-//W3C//DTD SVG 1.1//EN" "http://www.w3.org/Graphics/SVG/1.1/DTD/svg11.dtd">
<svg version="1.1" xmlns="http://www.w3.org/2000/svg" xmlns:xlink="http://www.w3.org/1999/xlink" preserveAspectRatio="xMidYMid meet" viewBox="441.51908396946556 359.8396946564885 142.1679389312976 130.71755725190837" width="138.17" height="126.72"><defs><path d="M442.52 360.84L580.69 360.84L580.69 487.56L442.52 487.56L442.52 360.84Z" id="aaFQNon6t"></path><path d="M450.15 369.24L574.58 369.24L574.58 481.45L450.15 481.45L450.15 369.24Z" id="b2SAi5OQqm"></path><path d="M574.58 481.45L580.69 487.56L442.52 487.56L450.15 481.45L450.15 369.24L442.52 360.84L580.69 360.84L574.58 369.24L574.58 481.45Z" id="b2CRmcmwBO"></path><path d="M468.47 382.98C468.47 386.35 465.91 389.08 462.75 389.08C459.59 389.08 457.02 386.35 457.02 382.98C457.02 379.61 459.59 376.87 462.75 376.87C465.91 376.87 468.47 379.61 468.47 382.98Z" id="a2Q7snkpg"></path><path d="M468.47 469.31C468.47 472.68 465.91 475.42 462.75 475.42C459.59 475.42 457.02 472.68 457.02 469.31C457.02 465.94 459.59 463.21 462.75 463.21C465.91 463.21 468.47 465.94 468.47 469.31Z" id="d1Hwj6EefJ"></path><path d="M568.75 467.1C568.75 470.47 566.18 473.21 563.02 473.21C559.86 473.21 557.29 470.47 557.29 467.1C557.29 463.73 559.86 460.99 563.02 460.99C566.18 460.99 568.75 463.73 568.75 467.1Z" id="a2pDibfa6y"></path><path d="M568.75 382.98C568.75 386.35 566.18 389.08 563.02 389.08C559.86 389.08 557.29 386.35 557.29 382.98C557.29 379.61 559.86 376.87 563.02 376.87C566.18 376.87 568.75 379.61 568.75 382.98Z" id="aFpIyJD15"></path><path d="M545.26 423.82C545.26 441.72 529.53 456.26 510.14 456.26C490.76 456.26 475.02 441.72 475.02 423.82C475.02 405.91 490.76 391.37 510.14 391.37C529.53 391.37 545.26 405.91 545.26 423.82Z" id="h1I6UPO9Gn"></path></defs><g><g><g><use xlink:href="#aaFQNon6t" opacity="1" fill-opacity="0" stroke="#151515" stroke-width="1" stroke-opacity="1"></use></g></g><g><g><use xlink:href="#b2SAi5OQqm" opacity="1" fill-opacity="0" stroke="#0b0a0b" stroke-width="1" stroke-opacity="1"></use></g></g><g><g><use xlink:href="#b2CRmcmwBO" opacity="1" fill-opacity="0" stroke="#050405" stroke-width="1" stroke-opacity="1"></use></g></g><g><g><use xlink:href="#a2Q7snkpg" opacity="1" fill-opacity="0" stroke="#262024" stroke-width="1" stroke-opacity="1"></use></g></g><g><g><use xlink:href="#d1Hwj6EefJ" opacity="1" fill-opacity="0" stroke="#262024" stroke-width="1" stroke-opacity="1"></use></g></g><g><g><use xlink:href="#a2pDibfa6y" opacity="1" fill-opacity="0" stroke="#262024" stroke-width="1" stroke-opacity="1"></use></g></g><g><g><use xlink:href="#aFpIyJD15" opacity="1" fill-opacity="0" stroke="#262024" stroke-width="1" stroke-opacity="1"></use></g></g><g><g><use xlink:href="#h1I6UPO9Gn" opacity="1" fill-opacity="0" stroke="#171416" stroke-width="1" stroke-opacity="1"></use></g></g></g></svg>