<?xml version="1.0" encoding="UTF-8" standalone="no"?>
<!DOCTYPE svg PUBLIC "-//W3C//DTD SVG 1.1//EN" "http://www.w3.org/Graphics/SVG/1.1/DTD/svg11.dtd">
<svg version="1.1" xmlns="http://www.w3.org/2000/svg" xmlns:xlink="http://www.w3.org/1999/xlink" preserveAspectRatio="xMidYMid meet" viewBox="114.14147761489147 275.8702290076336 406.4682165430996 288.73282442748075" width="402.47" height="284.73"><defs><path d="M215.68 276.87L416.58 276.87L416.58 412.75L215.68 412.75L215.68 276.87Z" id="b2St6Xq93c"></path><path d="M416.58 412.75L512.75 557.02L118.09 561.6L215.68 412.75L416.58 412.75Z" id="d5o0rXPNJ"></path><path d="M514.66 561.6L417.07 412.75L417.07 276.87C417.07 276.87 417.07 276.87 417.07 276.87C473.23 276.87 518.5 322.88 517.6 379.03C517.2 403.37 516.23 464.23 514.66 561.6Z" id="ahT1ojBEv"></path><path d="M118.09 561.6L215.68 412.75L215.68 276.87C215.68 276.87 215.68 276.87 215.68 276.87C159.52 276.87 114.25 322.88 115.15 379.03C115.55 403.37 116.53 464.23 118.09 561.6Z" id="d7X0xStp"></path><path d="M193.28 392.14C193.28 411.1 180.79 426.49 165.41 426.49C150.03 426.49 137.55 411.1 137.55 392.14C137.55 373.18 150.03 357.79 165.41 357.79C180.79 357.79 193.28 373.18 193.28 392.14Z" id="a1GypyFTs7"></path><path d="M483.43 399.85C483.43 418.81 470.94 434.2 455.57 434.2C440.19 434.2 427.7 418.81 427.7 399.85C427.7 380.89 440.19 365.5 455.57 365.5C470.94 365.5 483.43 380.89 483.43 399.85Z" id="a4LBDSMxs"></path><path d="M205.68 513.33L437.42 513.33L391.31 440.05L247.66 440.05L205.68 513.33Z" id="b511HgPpef"></path><path d="M327.18 363.79C330.41 363.79 333.03 366.4 333.03 369.63C333.03 380.36 333.03 407.16 333.03 450.05L320.97 450.05C320.97 407.16 320.97 380.36 320.97 369.63C320.97 366.4 323.59 363.79 326.82 363.79C328.06 363.79 325.93 363.79 327.18 363.79Z" id="d4b6BTcYK"></path><mask id="maska1dahGlBUM" x="318.97" y="361.79" width="16.06" height="90.26" maskUnits="userSpaceOnUse"><rect x="318.97" y="361.79" width="16.06" height="90.26" fill="white"></rect><use xlink:href="#d4b6BTcYK" opacity="1" fill="black"></use></mask><path d="M316.13 434.2L327 410.27L327 392.14L316.73 412.75L316.13 434.2Z" id="b18ojY7gQq"></path><path d="M310.88 399.85C314.11 399.85 316.73 402.47 316.73 405.7C316.73 417.68 316.73 447.64 316.73 495.57L304.67 495.57C304.67 447.64 304.67 417.68 304.67 405.7C304.67 402.47 307.29 399.85 310.52 399.85C311.77 399.85 309.64 399.85 310.88 399.85Z" id="a6Q2F9Kk4"></path><mask id="maskcsk89AoCJ" x="302.67" y="397.85" width="16.06" height="99.73" maskUnits="userSpaceOnUse"><rect x="302.67" y="397.85" width="16.06" height="99.73" fill="white"></rect><use xlink:href="#a6Q2F9Kk4" opacity="1" fill="black"></use></mask><path d="" id="a50NdCQbCZ"></path></defs><g><g><use xlink:href="#b2St6Xq93c" opacity="1" fill="#001e48" fill-opacity="1"></use></g><g><use xlink:href="#d5o0rXPNJ" opacity="1" fill="#001e48" fill-opacity="1"></use><g><use xlink:href="#d5o0rXPNJ" opacity="1" fill-opacity="0" stroke="#b3afaf" stroke-width="1" stroke-opacity="1"></use></g></g><g><use xlink:href="#ahT1ojBEv" opacity="1" fill="#001e48" fill-opacity="1"></use><g><use xlink:href="#ahT1ojBEv" opacity="1" fill-opacity="0" stroke="#b3afaf" stroke-width="1" stroke-opacity="1"></use></g></g><g><use xlink:href="#d7X0xStp" opacity="1" fill="#001e48" fill-opacity="1"></use><g><use xlink:href="#d7X0xStp" opacity="1" fill-opacity="0" stroke="#b3afaf" stroke-width="1" stroke-opacity="1"></use></g></g><g><use xlink:href="#a1GypyFTs7" opacity="1" fill="#151414" fill-opacity="1"></use></g><g><use xlink:href="#a4LBDSMxs" opacity="1" fill="#151414" fill-opacity="1"></use></g><g><use xlink:href="#b511HgPpef" opacity="1" fill="#7f8690" fill-opacity="1"></use><g><use xlink:href="#b511HgPpef" opacity="1" fill-opacity="0" stroke="#b3afaf" stroke-width="1" stroke-opacity="1"></use></g></g><g><g><filter id="shadow2436227" x="311.97" y="354.79" width="31.06" height="105.26" filterUnits="userSpaceOnUse" primitiveUnits="userSpaceOnUse"><feFlood></feFlood><feComposite in2="SourceAlpha" operator="in"></feComposite><feGaussianBlur stdDeviation="1"></feGaussianBlur><feOffset dx="1" dy="1" result="afterOffset"></feOffset><feFlood flood-color="#000000" flood-opacity="0.5"></feFlood><feComposite in2="afterOffset" operator="in"></feComposite><feMorphology operator="dilate" radius="1"></feMorphology><feComposite in2="SourceAlpha" operator="out"></feComposite></filter><path d="M327.18 363.79C330.41 363.79 333.03 366.4 333.03 369.63C333.03 380.36 333.03 407.16 333.03 450.05L320.97 450.05C320.97 407.16 320.97 380.36 320.97 369.63C320.97 366.4 323.59 363.79 326.82 363.79C328.06 363.79 325.93 363.79 327.18 363.79Z" id="bS4cj9ZkY" fill="white" fill-opacity="1" filter="url(#shadow2436227)"></path></g><use xlink:href="#d4b6BTcYK" opacity="1" fill="#0a0b0b" fill-opacity="1"></use><g mask="url(#maska1dahGlBUM)"><use xlink:href="#d4b6BTcYK" opacity="1" fill-opacity="0" stroke="#ffffff" stroke-width="2" stroke-opacity="1"></use></g></g><g><use xlink:href="#b18ojY7gQq" opacity="1" fill="#151414" fill-opacity="1"></use><g><use xlink:href="#b18ojY7gQq" opacity="1" fill-opacity="0" stroke="#ffffff" stroke-width="0.5" stroke-opacity="1"></use></g></g><g><g><filter id="shadow1919531" x="295.67" y="390.85" width="31.06" height="114.73" filterUnits="userSpaceOnUse" primitiveUnits="userSpaceOnUse"><feFlood></feFlood><feComposite in2="SourceAlpha" operator="in"></feComposite><feGaussianBlur stdDeviation="1"></feGaussianBlur><feOffset dx="1" dy="1" result="afterOffset"></feOffset><feFlood flood-color="#000000" flood-opacity="0.5"></feFlood><feComposite in2="afterOffset" operator="in"></feComposite><feMorphology operator="dilate" radius="1"></feMorphology><feComposite in2="SourceAlpha" operator="out"></feComposite></filter><path d="M310.88 399.85C314.11 399.85 316.73 402.47 316.73 405.7C316.73 417.68 316.73 447.64 316.73 495.57L304.67 495.57C304.67 447.64 304.67 417.68 304.67 405.7C304.67 402.47 307.29 399.85 310.52 399.85C311.77 399.85 309.64 399.85 310.88 399.85Z" id="b4KZzDB4qH" fill="white" fill-opacity="1" filter="url(#shadow1919531)"></path></g><use xlink:href="#a6Q2F9Kk4" opacity="1" fill="#0a0b0b" fill-opacity="1"></use><g mask="url(#maskcsk89AoCJ)"><use xlink:href="#a6Q2F9Kk4" opacity="1" fill-opacity="0" stroke="#ffffff" stroke-width="2" stroke-opacity="1"></use></g></g><g><g><use xlink:href="#a50NdCQbCZ" opacity="1" fill-opacity="0" stroke="#ffffff" stroke-width="2" stroke-opacity="1"></use></g></g></g></svg>